<?xml version="1.0" standalone="no"?>
<!DOCTYPE svg PUBLIC "-//W3C//DTD SVG 20010904//EN"
 "http://www.w3.org/TR/2001/REC-SVG-20010904/DTD/svg10.dtd">
<svg version="1.0" xmlns="http://www.w3.org/2000/svg"
 width="661.000000pt" height="661.000000pt" viewBox="0 0 661.000000 661.000000"
 preserveAspectRatio="xMidYMid meet">
<metadata>
Created by potrace 1.11, written by Peter Selinger 2001-2013
</metadata>
<g transform="translate(0.000000,661.000000) scale(0.100000,-0.100000)"
fill="#000000" stroke="none">
<path d="M3065 6553 c-349 -29 -647 -93 -942 -204 -1189 -445 -2013 -1533
-2112 -2788 -133 -1668 1039 -3171 2699 -3460 214 -37 321 -46 575 -46 446 1
796 65 1197 221 536 208 1018 563 1378 1015 381 477 614 1041 685 1654 22 186
22 534 0 720 -104 900 -561 1693 -1290 2240 -574 431 -1280 661 -1999 653 -83
-1 -169 -3 -191 -5z m-1307 -1689 c20 -8 52 -29 70 -47 70 -67 66 -35 72 -637
6 -606 2 -577 73 -620 31 -19 54 -20 500 -20 500 0 496 0 542 50 19 21 20 40
25 569 5 536 5 547 27 586 47 87 123 135 216 135 97 0 173 -48 213 -135 l24
-50 0 -525 c0 -490 1 -528 18 -559 39 -72 32 -71 550 -71 511 0 514 0 552 62
19 32 20 49 20 549 0 558 1 575 54 643 37 49 117 86 186 86 69 0 149 -37 186
-86 56 -73 54 -13 54 -1489 0 -1476 2 -1414 -55 -1488 -85 -113 -286 -113
-371 -1 -53 68 -54 85 -54 643 0 500 -1 517 -20 549 -38 62 -41 62 -552 62
-518 0 -511 1 -550 -71 -17 -31 -18 -69 -18 -559 l0 -525 -24 -50 c-40 -88
-116 -135 -215 -135 -96 1 -177 55 -218 145 -16 36 -18 88 -23 581 -5 524 -6
543 -25 564 -46 50 -42 50 -542 50 -446 0 -469 -1 -500 -20 -71 -43 -67 -14
-73 -620 -6 -602 -2 -570 -72 -637 -45 -43 -96 -63 -165 -63 -100 0 -194 67
-221 159 -17 55 -17 2777 0 2832 15 52 68 112 120 138 52 25 142 28 196 5z"/>
</g>
</svg>
